<svg xmlns="http://www.w3.org/2000/svg" xmlns:xlink="http://www.w3.org/1999/xlink" width="384px" height="778px" viewBox="0 0 384 778" version="1.1">
  
    <title>iPhone8/Body_White</title>
    <desc>Created with Sketch.</desc>
    <defs>
        <path d="M5.1277704,-2.07168062e-16 L326.87223,2.07168062e-16 C328.655267,-1.2037061e-16 329.30184,0.185651222 329.953691,0.534265408 C330.605543,0.882879593 331.11712,1.39445674 331.465735,2.04630859 C331.814349,2.69816044 332,3.34473292 332,5.1277704 L332,586.87223 C332,588.655267 331.814349,589.30184 331.465735,589.953691 C331.11712,590.605543 330.605543,591.11712 329.953691,591.465735 C329.30184,591.814349 328.655267,592 326.87223,592 L5.1277704,592 C3.34473292,592 2.69816044,591.814349 2.04630859,591.465735 C1.39445674,591.11712 0.882879593,590.605543 0.534265408,589.953691 C0.185651222,589.30184 8.02470732e-17,588.655267 -1.38112041e-16,586.87223 L1.38112041e-16,5.1277704 C-8.02470732e-17,3.34473292 0.185651222,2.69816044 0.534265408,2.04630859 C0.882879593,1.39445674 1.39445674,0.882879593 2.04630859,0.534265408 C2.69816044,0.185651222 3.34473292,1.2037061e-16 5.1277704,-2.07168062e-16 Z" id="path-1"/>
        <path d="M5.1277704,-2.07168062e-16 L326.87223,2.07168062e-16 C328.655267,-1.2037061e-16 329.30184,0.185651222 329.953691,0.534265408 C330.605543,0.882879593 331.11712,1.39445674 331.465735,2.04630859 C331.814349,2.69816044 332,3.34473292 332,5.1277704 L332,56 L332,56 L0,56 L1.38112041e-16,5.1277704 C-8.02470732e-17,3.34473292 0.185651222,2.69816044 0.534265408,2.04630859 C0.882879593,1.39445674 1.39445674,0.882879593 2.04630859,0.534265408 C2.69816044,0.185651222 3.34473292,1.2037061e-16 5.1277704,-2.07168062e-16 Z" id="path-3"/>
        <filter x="-0.2%" y="-0.9%" width="100.3%" height="101.8%" filterUnits="objectBoundingBox" id="filter-4">
            <feOffset dx="0" dy="-1" in="SourceAlpha" result="shadowOffsetInner1"/>
            <feComposite in="shadowOffsetInner1" in2="SourceAlpha" operator="arithmetic" k2="-1" k3="1" result="shadowInnerInner1"/>
            <feColorMatrix values="0 0 0 0 0.909803922   0 0 0 0 0.917647059   0 0 0 0 0.925490196  0 0 0 1 0" type="matrix" in="shadowInnerInner1"/>
        </filter>
        <rect id="path-5" x="0" y="0" width="332" height="56"/>
        <filter x="0.0%" y="0.0%" width="100.0%" height="100.0%" filterUnits="objectBoundingBox" id="filter-6">
            <feOffset dx="0" dy="0" in="SourceAlpha" result="shadowOffsetOuter1"/>
            <feComposite in="shadowOffsetOuter1" in2="SourceAlpha" operator="out" result="shadowOffsetOuter1"/>
            <feColorMatrix values="0 0 0 0 0   0 0 0 0 0   0 0 0 0 0  0 0 0 0.25 0" type="matrix" in="shadowOffsetOuter1"/>
        </filter>
    </defs>
    <g id="Ver-270" stroke="none" stroke-width="1" fill="none" fill-rule="evenodd">
        <g id="H5-翻页---预览优化" transform="translate(-528.000000, -89.000000)">
            <g id="Page">
                <g id="iPhone8/Body_White" transform="translate(528.000000, 89.000000)">
                    <g id="Body">
                        <path d="M365.12777,189 L378.87223,189 C380.655267,189 381.30184,189.185651 381.953691,189.534265 C382.605543,189.88288 383.11712,190.394457 383.465735,191.046309 C383.814349,191.69816 384,192.344733 384,194.12777 L384,249.87223 C384,251.655267 383.814349,252.30184 383.465735,252.953691 C383.11712,253.605543 382.605543,254.11712 381.953691,254.465735 C381.30184,254.814349 380.655267,255 378.87223,255 L365.12777,255 C363.344733,255 362.69816,254.814349 362.046309,254.465735 C361.394457,254.11712 360.88288,253.605543 360.534265,252.953691 C360.185651,252.30184 360,251.655267 360,249.87223 L360,194.12777 C360,192.344733 360.185651,191.69816 360.534265,191.046309 C360.88288,190.394457 361.394457,189.88288 362.046309,189.534265 C362.69816,189.185651 363.344733,189 365.12777,189 Z" id="right-btn" fill="#F1F2F4"/>
                        <path d="M20.8722296,226 C22.6552671,226 23.3018396,226.185651 23.9536914,226.534265 C24.6055433,226.88288 25.1171204,227.394457 25.4657346,228.046309 C25.8143488,228.69816 26,229.344733 26,231.12777 L26,274.87223 C26,276.655267 25.8143488,277.30184 25.4657346,277.953691 C25.1171204,278.605543 24.6055433,279.11712 23.9536914,279.465735 C23.3018396,279.814349 22.6552671,280 20.8722296,280 L5.1277704,280 C3.34473292,280 2.69816044,279.814349 2.04630859,279.465735 C1.39445674,279.11712 0.882879593,278.605543 0.534265408,277.953691 C0.185651222,277.30184 8.02470732e-17,276.655267 -1.38112041e-16,274.87223 L1.38112041e-16,231.12777 C-8.02470732e-17,229.344733 0.185651222,228.69816 0.534265408,228.046309 C0.882879593,227.394457 1.39445674,226.88288 2.04630859,226.534265 C2.69816044,226.185651 3.34473292,226 5.1277704,226 L20.8722296,226 Z M20.8722296,164 C22.6552671,164 23.3018396,164.185651 23.9536914,164.534265 C24.6055433,164.88288 25.1171204,165.394457 25.4657346,166.046309 C25.8143488,166.69816 26,167.344733 26,169.12777 L26,212.87223 C26,214.655267 25.8143488,215.30184 25.4657346,215.953691 C25.1171204,216.605543 24.6055433,217.11712 23.9536914,217.465735 C23.3018396,217.814349 22.6552671,218 20.8722296,218 L5.1277704,218 C3.34473292,218 2.69816044,217.814349 2.04630859,217.465735 C1.39445674,217.11712 0.882879593,216.605543 0.534265408,215.953691 C0.185651222,215.30184 8.02470732e-17,214.655267 -1.38112041e-16,212.87223 L1.38112041e-16,169.12777 C-8.02470732e-17,167.344733 0.185651222,166.69816 0.534265408,166.046309 C0.882879593,165.394457 1.39445674,164.88288 2.04630859,164.534265 C2.69816044,164.185651 3.34473292,164 5.1277704,164 L20.8722296,164 Z" id="Left-Button" fill="#F1F2F4"/>
                        <path d="M349.936883,10.1251553 C341.110243,5.4046165 332.324147,3 308.211214,3 L75.0446771,3.00077942 C51.4919633,3.05043231 42.7975901,5.45390788 34.0631169,10.1251553 C25.4677293,14.7220189 18.7220189,21.4677293 14.1251553,30.0631169 C9.4046165,38.889757 7,47.6758526 7,71.7887856 L7,706.211214 C7,730.324147 9.4046165,739.110243 14.1251553,747.936883 C18.7220189,756.532271 25.4677293,763.277981 34.0631169,767.874845 C42.889757,772.595383 51.6758526,775 75.7887856,775 L308.211214,775 C332.324147,775 341.110243,772.595383 349.936883,767.874845 C358.532271,763.277981 365.277981,756.532271 369.874845,747.936883 C374.595383,739.110243 377,730.324147 377,706.211214 L377,71.7887856 C377,47.6758526 374.595383,38.889757 369.874845,30.0631169 C365.277981,21.4677293 358.532271,14.7220189 349.936883,10.1251553 Z" stroke="#F1F2F4" stroke-width="6" fill="#FFFFFF"/>
                    </g>
                    <g id="Screen" transform="translate(26.000000, 93.000000)">
                        <mask id="mask-2" fill="white">
                            <use xlink:href="#path-1"/>
                        </mask>
                        <path stroke="#E8EAEC" d="M326.87223,-0.5 L5.1277704,-0.5 C3.20313431,-0.5 2.51224198,-0.28193201 1.81050916,0.0933588086 C1.07023425,0.489262165 0.489262165,1.07023425 0.0933588086,1.81050916 C-0.28193201,2.51224198 -0.5,3.20313431 -0.5,5.1277704 L-0.5,586.87223 C-0.5,588.796866 -0.28193201,589.487758 0.0933588086,590.189491 C0.489262165,590.929766 1.07023425,591.510738 1.81050916,591.906641 C2.51224198,592.281932 3.20313431,592.5 5.1277704,592.5 L326.87223,592.5 C328.796866,592.5 329.487758,592.281932 330.189491,591.906641 C330.929766,591.510738 331.510738,590.929766 331.906641,590.189491 C332.281932,589.487758 332.5,588.796866 332.5,586.87223 L332.5,5.1277704 C332.5,3.20313431 332.281932,2.51224198 331.906641,1.81050916 C331.510738,1.07023425 330.929766,0.489262165 330.189491,0.0933588086 C329.487758,-0.28193201 328.796866,-0.5 326.87223,-0.5 Z"/>
                        <g id="BG/NaviBar" mask="url(#mask-2)">
                            <use fill="#FFFFFF" fill-rule="evenodd" xlink:href="#path-3"/>
                            <use fill="black" fill-opacity="1" filter="url(#filter-4)" xlink:href="#path-3"/>
                        </g>
                        <g id="Bars/Navigation/Navigation-Bar" mask="url(#mask-2)">
                            <g transform="translate(0.000000, -1.000000)">
                                <g id="Bar">
                                    <use fill="black" fill-opacity="1" filter="url(#filter-6)" xlink:href="#path-5"/>
                                    <use fill-opacity="0.82" fill="#F8F8F8" fill-rule="evenodd" xlink:href="#path-5"/>
                                </g>
                                <g id="Bars/Status/Black">
                                    <g id="Pin-Right" stroke-width="1" fill-rule="evenodd" transform="translate(263.538060, 2.667348)">
                                        <g id="Battery" transform="translate(8.002045, 0.000000)">
                                            <g transform="translate(32.008180, 1.333674)">
                                                <path d="M18.4892968,0.444558049 L2.8494895,0.444558049 C1.98455753,0.444558049 1.66466428,0.51890171 1.34678176,0.688907139 C1.06316765,0.840585628 0.840585628,1.06316765 0.688907139,1.34678176 C0.51890171,1.66466428 0.444558049,1.98455753 0.444558049,2.8494895 L0.444558049,7.37534562 C0.444558049,8.24027759 0.51890171,8.56017085 0.688907139,8.87805336 C0.840585628,9.16166748 1.06316765,9.38424949 1.34678176,9.53592798 C1.66466428,9.70593341 1.98455753,9.78027707 2.8494895,9.78027707 L19.6261888,9.78027707 C19.9763483,9.78027707 20.2933581,9.63834692 20.5228281,9.40887691 C20.7522981,9.17940691 20.8942283,8.86239704 20.8942283,8.51223761 L20.8942283,2.8494895 C20.8942283,1.98455753 20.8198846,1.66466428 20.6498792,1.34678176 C20.4982007,1.06316765 20.2756187,0.840585628 19.9920046,0.688907139 C19.6741221,0.51890171 19.3542288,0.444558049 18.4892968,0.444558049 Z" id="Border" stroke="#000000" stroke-width="0.889116098" opacity="0.400000006"/>
                                                <path d="M22.2280067,3.55649123 C22.9949175,3.7539303 23.5615766,4.45012723 23.5615766,5.2786745 C23.5615766,6.10722176 22.9949175,6.8034187 22.2280067,7.00085776 Z" id="Nub" fill="#000000" opacity="0.400000006"/>
                                                <path d="M2.22279024,1.7782322 L19.1159961,1.7782322 C19.3615187,1.7782322 19.5605541,1.97726761 19.5605541,2.22279024 L19.5605541,8.00204488 C19.5605541,8.24756751 19.3615187,8.44660293 19.1159961,8.44660293 L2.22279024,8.44660293 C1.97726761,8.44660293 1.7782322,8.24756751 1.7782322,8.00204488 L1.7782322,2.22279024 C1.7782322,1.97726761 1.97726761,1.7782322 2.22279024,1.7782322 Z" id="Charge" fill="#000000"/>
                                            </g>
                                            <text id="100%" font-family="SFProText-Regular, SF Pro Text" font-size="10.6693932" font-weight="normal" fill="#030303">
                                                <tspan x="1.96404357" y="10.444558">100%</tspan>
                                            </text>
                                        </g>
                                        <polyline id="Bluetooth" stroke="#000000" stroke-width="0.889116098" points="0.444558049 3.55646439 5.77925463 8.44660293 3.11190634 10.6693932 3.11190634 1.7782322 5.77925463 4.00102244 0.444558049 8.89116098"/>
                                    </g>
                                    <text id="Time" font-family="SFProText-Semibold, SF Pro Text" font-size="10.6693932" font-weight="500" fill="#030303">
                                        <tspan x="144.429384" y="13.1119063">9:41 AM</tspan>
                                    </text>
                                    <g id="Overrides/Status-Bar/Signal---Black" fill="#000000" fill-rule="evenodd" stroke-width="1">
                                        <g id="Group" transform="translate(5.334697, 4.445580)">
                                            <path d="M1.7782322,4.89013854 C2.26927746,4.89013854 2.66734829,5.28820937 2.66734829,5.77925463 L2.66734829,8.00204488 C2.66734829,8.49309014 2.26927746,8.89116098 1.7782322,8.89116098 L0.889116098,8.89116098 C0.398070836,8.89116098 1.71158003e-16,8.49309014 0,8.00204488 L0,5.77925463 C5.08866017e-17,5.28820937 0.398070836,4.89013854 0.889116098,4.89013854 L1.7782322,4.89013854 Z M5.77925463,3.55646439 C6.2702999,3.55646439 6.66837073,3.95453523 6.66837073,4.44558049 L6.66837073,8.00204488 C6.66837073,8.49309014 6.2702999,8.89116098 5.77925463,8.89116098 L4.89013854,8.89116098 C4.39909328,8.89116098 4.00102244,8.49309014 4.00102244,8.00204488 L4.00102244,4.44558049 C4.00102244,3.95453523 4.39909328,3.55646439 4.89013854,3.55646439 L5.77925463,3.55646439 Z M9.78027707,1.7782322 C10.2713223,1.7782322 10.6693932,2.17630303 10.6693932,2.66734829 L10.6693932,8.00204488 C10.6693932,8.49309014 10.2713223,8.89116098 9.78027707,8.89116098 L8.89116098,8.89116098 C8.40011571,8.89116098 8.00204488,8.49309014 8.00204488,8.00204488 L8.00204488,2.66734829 C8.00204488,2.17630303 8.40011571,1.7782322 8.89116098,1.7782322 L9.78027707,1.7782322 Z M13.7812995,0 C14.2723448,2.08187513e-17 14.6704156,0.398070836 14.6704156,0.889116098 L14.6704156,8.00204488 C14.6704156,8.49309014 14.2723448,8.89116098 13.7812995,8.89116098 L12.8921834,8.89116098 C12.4011382,8.89116098 12.0030673,8.49309014 12.0030673,8.00204488 L12.0030673,0.889116098 C12.0030673,0.398070836 12.4011382,-2.42863356e-16 12.8921834,0 L13.7812995,0 Z" id="Mobile-Signal"/>
                                            <path d="M18.671438,2.5158098 C20.3400896,0.955277508 22.5818809,7.8969373e-16 25.0467892,7.8969373e-16 C27.5116975,7.8969373e-16 29.7534888,0.955277508 31.4221404,2.5158098 L30.1638643,3.77408588 C28.8177586,2.5349404 27.0206432,1.7782322 25.0467892,1.7782322 C23.0729352,1.7782322 21.2758199,2.5349404 19.9297141,3.77408588 L18.671438,2.5158098 L18.671438,2.5158098 Z M20.8737503,4.71812202 C21.9776694,3.71986081 23.4412316,3.11190634 25.0467892,3.11190634 C26.6523468,3.11190634 28.115909,3.71986081 29.2198282,4.71812202 L27.9601901,5.97776008 C27.1799558,5.30023692 26.1612643,4.89013854 25.0467892,4.89013854 C23.9323141,4.89013854 22.9136226,5.30023692 22.1333883,5.97776008 L20.8737503,4.71812202 Z M23.0798055,6.92417729 C23.6158938,6.48638994 24.3006774,6.22381268 25.0467892,6.22381268 C25.792901,6.22381268 26.4776846,6.48638994 27.0137729,6.92417729 L25.0467892,8.89116098 L23.0798055,6.92417729 L23.0798055,6.92417729 Z" id="Wifi"/>
                                        </g>
                                    </g>
                                </g>
                            </g>
                        </g>
                    </g>
                </g>
            </g>
        </g>
    </g>
</svg>